<svg width="80" height="80" viewBox="0 0 80 80" fill="none" xmlns="http://www.w3.org/2000/svg">
<path d="M63.413 49.6404L66.5531 52.7598C67.4453 53.6462 66.9244 55.1619 65.6741 55.317L51.7193 57.0494C50.7376 57.1712 49.9014 56.3406 50.0241 55.3653L51.7679 41.5024C51.9242 40.2603 53.4499 39.7428 54.3421 40.6292L57.8195 44.0837C58.1262 42.7716 58.2883 41.4047 58.2883 40C58.2883 30.0686 50.1839 22.0175 40.1867 22.0175C38.6545 22.0175 37.1667 22.2066 35.7457 22.5627L30.1947 17.0481C33.2577 15.7304 36.6363 15 40.1867 15C54.0853 15 65.3523 26.1929 65.3523 40C65.3523 43.4169 64.6622 46.6737 63.413 49.6404Z" fill="#FBFBFB"/>
<path d="M22.5539 35.9163L25.6579 38.9999C26.5501 39.8863 28.0759 39.3688 28.2321 38.1266L29.9759 24.2637C30.0986 23.2885 29.2624 22.4579 28.2807 22.5797L14.3259 24.312C13.0756 24.4672 12.5547 25.9829 13.4469 26.8693L16.9603 30.3596C15.7111 33.3262 15.0211 36.5831 15.0211 40C15.0211 53.8071 26.2881 65 40.1867 65C43.737 65 47.1156 64.2696 50.1786 62.9519L44.6275 57.4373C43.2066 57.7934 41.7189 57.9825 40.1867 57.9825C30.1895 57.9825 22.0851 49.9314 22.0851 40C22.0851 38.5953 22.2472 37.2283 22.5539 35.9163Z" fill="#FBFBFB"/>
</svg>
