<svg width="80" height="80" viewBox="0 0 80 80" fill="none" xmlns="http://www.w3.org/2000/svg">
<path d="M37.3333 14.9333C36.0079 14.9333 34.9333 16.0079 34.9333 17.3333V34.6667H17.6C16.2745 34.6667 15.2 35.7412 15.2 37.0667V42.6667C15.2 43.9922 16.2745 45.0667 17.6 45.0667H34.9333V62.4C34.9333 63.7255 36.0079 64.8 37.3333 64.8H42.9333C44.2588 64.8 45.3333 63.7255 45.3333 62.4V45.0667H62.6667C63.9922 45.0667 65.0667 43.9922 65.0667 42.6667V37.0667C65.0667 35.7412 63.9922 34.6667 62.6667 34.6667H45.3333V17.3333C45.3333 16.0079 44.2588 14.9333 42.9333 14.9333H37.3333Z" fill="#FBFBFB"/>
</svg>
