<svg width="80" height="80" viewBox="0 0 80 80" fill="none" xmlns="http://www.w3.org/2000/svg">
<path d="M24.5333 17.3334C24.5333 16.0079 25.6078 14.9333 26.9333 14.9333H32.5333C33.8588 14.9333 34.9333 16.0079 34.9333 17.3333V62.4C34.9333 63.7255 33.8588 64.8 32.5333 64.8H26.9333C25.6078 64.8 24.5333 63.7255 24.5333 62.4V17.3334Z" fill="#FBFBFB"/>
<path d="M45.3333 17.3334C45.3333 16.0079 46.4078 14.9333 47.7333 14.9333H53.3333C54.6588 14.9333 55.7333 16.0079 55.7333 17.3333V62.4C55.7333 63.7255 54.6588 64.8 53.3333 64.8H47.7333C46.4078 64.8 45.3333 63.7255 45.3333 62.4V17.3334Z" fill="#FBFBFB"/>
</svg>
